<svg width="24" height="25" viewBox="0 0 24 25" fill="none" xmlns="http://www.w3.org/2000/svg">
<path fill-rule="evenodd" clip-rule="evenodd" d="M9.59102 15.7068C13.28 15.7068 16.433 16.2658 16.433 18.4988C16.433 20.7318 13.301 21.3068 9.59102 21.3068C5.90102 21.3068 2.74902 20.7528 2.74902 18.5188C2.74902 16.2848 5.88002 15.7068 9.59102 15.7068Z" stroke="#4F5665" stroke-width="1.5" stroke-linecap="round" stroke-linejoin="round"/>
<path fill-rule="evenodd" clip-rule="evenodd" d="M9.59108 12.5198C7.16908 12.5198 5.20508 10.5568 5.20508 8.13479C5.20508 5.71279 7.16908 3.74979 9.59108 3.74979C12.0121 3.74979 13.9761 5.71279 13.9761 8.13479C13.9851 10.5478 12.0351 12.5108 9.62208 12.5198H9.59108Z" stroke="#4F5665" stroke-width="1.5" stroke-linecap="round" stroke-linejoin="round"/>
<path d="M16.4824 11.3816C18.0834 11.1566 19.3164 9.78259 19.3194 8.11959C19.3194 6.48059 18.1244 5.12059 16.5574 4.86359" stroke="#4F5665" stroke-width="1.5" stroke-linecap="round" stroke-linejoin="round"/>
<path d="M18.5947 15.2322C20.1457 15.4632 21.2287 16.0072 21.2287 17.1272C21.2287 17.8982 20.7187 18.3982 19.8947 18.7112" stroke="#4F5665" stroke-width="1.5" stroke-linecap="round" stroke-linejoin="round"/>
</svg>
