<svg width="32" height="32" viewBox="0 0 32 32" fill="none" xmlns="http://www.w3.org/2000/svg">
<circle cx="16" cy="16" r="16" fill="#2948FF"/>
<path d="M19.9998 14.667H17.3332V12.0003C17.3332 11.6467 17.1927 11.3076 16.9426 11.0575C16.6926 10.8075 16.3535 10.667 15.9998 10.667C15.6462 10.667 15.3071 10.8075 15.057 11.0575C14.807 11.3076 14.6665 11.6467 14.6665 12.0003L14.7138 14.667H11.9998C11.6462 14.667 11.3071 14.8075 11.057 15.0575C10.807 15.3076 10.6665 15.6467 10.6665 16.0003C10.6665 16.3539 10.807 16.6931 11.057 16.9431C11.3071 17.1932 11.6462 17.3337 11.9998 17.3337L14.7138 17.2863L14.6665 20.0003C14.6665 20.3539 14.807 20.6931 15.057 20.9431C15.3071 21.1932 15.6462 21.3337 15.9998 21.3337C16.3535 21.3337 16.6926 21.1932 16.9426 20.9431C17.1927 20.6931 17.3332 20.3539 17.3332 20.0003V17.2863L19.9998 17.3337C20.3535 17.3337 20.6926 17.1932 20.9426 16.9431C21.1927 16.6931 21.3332 16.3539 21.3332 16.0003C21.3332 15.6467 21.1927 15.3076 20.9426 15.0575C20.6926 14.8075 20.3535 14.667 19.9998 14.667Z" fill="white"/>
</svg>
