<svg width="24" height="25" viewBox="0 0 24 25" fill="none" xmlns="http://www.w3.org/2000/svg">
<mask id="mask0_30_877" style="mask-type:luminance" maskUnits="userSpaceOnUse" x="2" y="9" width="20" height="15">
<path fill-rule="evenodd" clip-rule="evenodd" d="M2 9.2941H21.9996V23.0381H2V9.2941Z" fill="white"/>
</mask>
<g mask="url(#mask0_30_877)">
<path fill-rule="evenodd" clip-rule="evenodd" d="M17.565 23.0381H6.435C3.99 23.0381 2 21.0491 2 18.6031V13.7281C2 11.2831 3.99 9.2941 6.435 9.2941H7.368C7.782 9.2941 8.118 9.6301 8.118 10.0441C8.118 10.4581 7.782 10.7941 7.368 10.7941H6.435C4.816 10.7941 3.5 12.1101 3.5 13.7281V18.6031C3.5 20.2221 4.816 21.5381 6.435 21.5381H17.565C19.183 21.5381 20.5 20.2221 20.5 18.6031V13.7191C20.5 12.1061 19.188 10.7941 17.576 10.7941H16.633C16.219 10.7941 15.883 10.4581 15.883 10.0441C15.883 9.6301 16.219 9.2941 16.633 9.2941H17.576C20.015 9.2941 22 11.2791 22 13.7191V18.6031C22 21.0491 20.01 23.0381 17.565 23.0381Z" fill="#4F5665"/>
</g>
<mask id="mask1_30_877" style="mask-type:luminance" maskUnits="userSpaceOnUse" x="11" y="2" width="2" height="15">
<path fill-rule="evenodd" clip-rule="evenodd" d="M11.25 2.50009H12.75V16.041H11.25V2.50009Z" fill="white"/>
</mask>
<g mask="url(#mask1_30_877)">
<path fill-rule="evenodd" clip-rule="evenodd" d="M12 16.041C11.586 16.041 11.25 15.705 11.25 15.291V3.25C11.25 2.836 11.586 2.5 12 2.5C12.414 2.5 12.75 2.836 12.75 3.25V15.291C12.75 15.705 12.414 16.041 12 16.041Z" fill="#4F5665"/>
</g>
<path fill-rule="evenodd" clip-rule="evenodd" d="M9.08471 6.92868C8.89371 6.92868 8.70171 6.85568 8.55571 6.70968C8.26271 6.41768 8.26071 5.94368 8.55371 5.64968L11.4687 2.72168C11.7497 2.43868 12.2497 2.43868 12.5307 2.72168L15.4467 5.64968C15.7387 5.94368 15.7377 6.41768 15.4447 6.70968C15.1507 7.00168 14.6767 7.00168 14.3847 6.70768L11.9997 4.31368L9.61571 6.70768C9.46971 6.85568 9.27671 6.92868 9.08471 6.92868Z" fill="#4F5665"/>
</svg>
